<svg width="47" height="32" viewBox="0 0 47 32" fill="none" xmlns="http://www.w3.org/2000/svg">
<rect width="46.6667" height="32" rx="6" fill="#1F72CD"/>
<path fill-rule="evenodd" clip-rule="evenodd" d="M8.36623 11.3333L4 20.9957H9.22699L9.87499 19.4551H11.3562L12.0042 20.9957H17.7576V19.8198L18.2703 20.9957H21.2464L21.7591 19.795V20.9957H33.7247L35.1796 19.4951L36.542 20.9957L42.6878 21.0081L38.3078 16.1915L42.6878 11.3333H36.6373L35.221 12.8062L33.9015 11.3333H20.8845L19.7667 13.8273L18.6228 11.3333H13.4067V12.4691L12.8264 11.3333H8.36623ZM26.2344 12.7054H33.1056L35.2072 14.9755L37.3766 12.7054H39.4781L36.285 16.1901L39.4781 19.6347H37.2812L35.1796 17.3382L32.9993 19.6347H26.2344V12.7054ZM27.9312 15.4066V14.1409V14.1397H32.2187L34.0895 16.1639L32.1358 18.1991H27.9312V16.8173H31.6798V15.4066H27.9312ZM9.37763 12.7054H11.9255L14.8216 19.2575V12.7054H17.6127L19.8496 17.4032L21.9112 12.7054H24.6884V19.6388H22.9985L22.9847 14.2058L20.5211 19.6388H19.0095L16.5321 14.2058V19.6388H13.0557L12.3966 18.0844H8.83602L8.17832 19.6374H6.31572L9.37763 12.7054ZM9.44399 16.6475L10.6171 13.8785L11.7888 16.6475H9.44399Z" fill="white"/>
</svg>
