<svg width="47" height="32" viewBox="0 0 47 32" fill="none" xmlns="http://www.w3.org/2000/svg">
<rect width="46.6667" height="32" rx="6" fill="white"/>
<path d="M19.6456 31.3333L45.979 23.6667V26.3333C45.979 29.0948 43.7404 31.3333 40.979 31.3333H19.6456Z" fill="#FD6020"/>
<path fill-rule="evenodd" clip-rule="evenodd" d="M40.9807 12.8145C42.4295 12.8145 43.2263 13.4592 43.2263 14.677C43.2987 15.6083 42.6468 16.3963 41.7775 16.5395L43.7333 19.1901H42.2122L40.5461 16.6112H40.4012V19.1901H39.1698V12.8145H40.9807ZM40.4012 15.7515H40.7634C41.5602 15.7515 41.9224 15.3934 41.9224 14.7486C41.9224 14.1755 41.5602 13.8174 40.7634 13.8174H40.4012V15.7515ZM34.896 19.1901H38.373V18.1155H36.1274V16.3963H38.3006V15.3217H36.1274V13.889H38.373V12.8145H34.896V19.1901ZM31.2742 17.1126L29.6081 12.8145H28.3042L30.9844 19.3333H31.6363L34.3165 12.8145H33.0126L31.2742 17.1126ZM16.5694 16.0381C16.5694 17.829 18.0182 19.3333 19.8291 19.3333C20.4086 19.3333 20.9157 19.1901 21.4227 18.9752V17.5424C21.0605 17.9723 20.5535 18.2588 19.974 18.2588C18.815 18.2588 17.8733 17.3992 17.8733 16.253V16.1097C17.8009 14.9635 18.7425 13.9606 19.9015 13.889C20.481 13.889 21.0605 14.1756 21.4227 14.6054V13.1726C20.9881 12.8861 20.4086 12.8145 19.9015 12.8145C18.0182 12.6712 16.5694 14.1756 16.5694 16.0381ZM14.3239 15.2501C13.5995 14.9635 13.3822 14.8203 13.3822 14.4621C13.4546 14.0323 13.8168 13.6741 14.2514 13.7457C14.6136 13.7457 14.9758 13.9606 15.2656 14.2472L15.9175 13.3876C15.4104 12.9577 14.7585 12.6712 14.1066 12.6712C13.0924 12.5996 12.2232 13.3876 12.1508 14.3905V14.4621C12.1508 15.3217 12.5129 15.8232 13.6719 16.1814C13.9617 16.253 14.2514 16.3963 14.5412 16.5395C14.7585 16.6828 14.9034 16.8977 14.9034 17.1843C14.9034 17.6857 14.4688 18.1155 14.0341 18.1155H13.9617C13.3822 18.1155 12.8751 17.7573 12.6578 17.2559L11.861 18.0439C12.2956 18.8319 13.1649 19.2617 14.0341 19.2617C15.1931 19.3333 16.1348 18.4737 16.2072 17.3275V17.1126C16.1348 16.253 15.7726 15.8232 14.3239 15.2501ZM10.1225 19.1901H11.354V12.8145H10.1225V19.1901ZM4.39999 12.8145H6.21092H6.57311C8.3116 12.8861 9.6879 14.3188 9.61547 16.0381C9.61547 16.9694 9.18084 17.829 8.45647 18.4737C7.80454 18.9752 7.00773 19.2617 6.21092 19.1901H4.39999V12.8145ZM5.9936 18.1155C6.5731 18.1872 7.22504 17.9723 7.65966 17.6141C8.09428 17.1843 8.31159 16.6112 8.31159 15.9665C8.31159 15.3934 8.09428 14.8203 7.65966 14.3905C7.22504 14.0323 6.5731 13.8174 5.9936 13.889H5.63142V18.1155H5.9936Z" fill="black"/>
<path fill-rule="evenodd" clip-rule="evenodd" d="M25.117 12.6667C23.3061 12.6667 21.7849 14.0994 21.7849 15.9619C21.7849 17.7528 23.2337 19.2572 25.117 19.3288C27.0004 19.4004 28.4491 17.8961 28.5216 16.0336C28.4491 14.171 27.0004 12.6667 25.117 12.6667V12.6667Z" fill="#FD6020"/>
</svg>
