<svg width="29" height="26" viewBox="0 0 29 26" fill="none" xmlns="http://www.w3.org/2000/svg">
<path d="M14.1667 25.9958L12.1125 24.1542C9.72778 22.0056 7.75625 20.1521 6.19792 18.5938C4.63958 17.0354 3.4 15.6362 2.47917 14.3962C1.55833 13.1571 0.915167 12.0181 0.549667 10.9792C0.183222 9.94028 0 8.87778 0 7.79167C0 5.57222 0.74375 3.71875 2.23125 2.23125C3.71875 0.74375 5.57222 0 7.79167 0C9.01945 0 10.1882 0.259722 11.2979 0.779167C12.4076 1.29861 13.3639 2.03056 14.1667 2.975C14.9694 2.03056 15.9257 1.29861 17.0354 0.779167C18.1451 0.259722 19.3139 0 20.5417 0C22.7611 0 24.6146 0.74375 26.1021 2.23125C27.5896 3.71875 28.3333 5.57222 28.3333 7.79167C28.3333 8.87778 28.1506 9.94028 27.7851 10.9792C27.4186 12.0181 26.775 13.1571 25.8542 14.3962C24.9333 15.6362 23.6938 17.0354 22.1354 18.5938C20.5771 20.1521 18.6056 22.0056 16.2208 24.1542L14.1667 25.9958ZM14.1667 22.1708C16.4333 20.1403 18.2986 18.3987 19.7625 16.9462C21.2264 15.4946 22.3833 14.2318 23.2333 13.158C24.0833 12.0832 24.6736 11.1265 25.0042 10.2878C25.3347 9.45011 25.5 8.61806 25.5 7.79167C25.5 6.375 25.0278 5.19444 24.0833 4.25C23.1389 3.30556 21.9583 2.83333 20.5417 2.83333C19.4319 2.83333 18.4049 3.14594 17.4604 3.77117C16.516 4.39733 15.8667 5.19444 15.5125 6.1625H12.8208C12.4667 5.19444 11.8174 4.39733 10.8729 3.77117C9.92847 3.14594 8.90139 2.83333 7.79167 2.83333C6.375 2.83333 5.19445 3.30556 4.25 4.25C3.30556 5.19444 2.83333 6.375 2.83333 7.79167C2.83333 8.61806 2.99861 9.45011 3.32917 10.2878C3.65972 11.1265 4.25 12.0832 5.1 13.158C5.95 14.2318 7.10695 15.4946 8.57084 16.9462C10.0347 18.3987 11.9 20.1403 14.1667 22.1708Z" fill="white"/>
</svg>
