<svg width="47" height="32" viewBox="0 0 47 32" fill="none" xmlns="http://www.w3.org/2000/svg">
<rect width="46.6667" height="32" rx="6" fill="white"/>
<path fill-rule="evenodd" clip-rule="evenodd" d="M23.6667 22.8759C22.0779 24.247 20.017 25.0746 17.765 25.0746C12.7401 25.0746 8.66667 20.9539 8.66667 15.8707C8.66667 10.7874 12.7401 6.66667 17.765 6.66667C20.017 6.66667 22.0779 7.49434 23.6667 8.86538C25.2554 7.49434 27.3163 6.66667 29.5683 6.66667C34.5932 6.66667 38.6667 10.7874 38.6667 15.8707C38.6667 20.9539 34.5932 25.0746 29.5683 25.0746C27.3163 25.0746 25.2554 24.247 23.6667 22.8759Z" fill="#ED0006"/>
<path fill-rule="evenodd" clip-rule="evenodd" d="M23.6667 22.8759C25.6229 21.1877 26.8634 18.6757 26.8634 15.8707C26.8634 13.0656 25.6229 10.5536 23.6667 8.86538C25.2554 7.49434 27.3163 6.66667 29.5683 6.66667C34.5932 6.66667 38.6667 10.7874 38.6667 15.8707C38.6667 20.9539 34.5932 25.0746 29.5683 25.0746C27.3163 25.0746 25.2554 24.247 23.6667 22.8759Z" fill="#F9A000"/>
<path fill-rule="evenodd" clip-rule="evenodd" d="M23.6667 8.86542C25.6229 10.5536 26.8634 13.0656 26.8634 15.8707C26.8634 18.6757 25.6229 21.1877 23.6667 22.8759C21.7105 21.1877 20.47 18.6757 20.47 15.8707C20.47 13.0656 21.7105 10.5536 23.6667 8.86542Z" fill="#FF5E00"/>
</svg>
