<svg width="64" height="64" viewBox="0 0 64 64" fill="none" xmlns="http://www.w3.org/2000/svg">
<rect width="64.0005" height="64" rx="32" fill="#010322"/>
<path fill-rule="evenodd" clip-rule="evenodd" d="M43.9964 34.2807C43.9964 34.4709 44.2631 39.6547 40.4888 42.5062L40.4871 42.5074C37.6823 44.6112 34.5855 43.9157 34.0597 43.7879C33.8447 43.7357 33.6791 43.5485 33.6384 43.3127C33.5977 43.0762 33.6907 42.8362 33.8738 42.703C34.6504 42.1384 36.3602 40.7834 37.4992 38.1846C38.5122 35.878 38.5105 33.6926 38.4242 32.5015H34.179C33.2771 32.5015 32.5391 31.6956 32.5391 30.7116V21.7894C32.5391 20.8053 33.2771 20 34.179 20H42.3564C43.2584 20 43.9964 20.8053 43.9964 21.7894V34.2807Z" fill="white"/>
<path fill-rule="evenodd" clip-rule="evenodd" d="M31.4579 34.2801C31.4579 34.4703 31.7246 39.6547 27.9497 42.5062L27.9486 42.5074C25.1432 44.6112 22.047 43.9157 21.5212 43.7879C21.3062 43.7357 21.1401 43.5485 21.0999 43.3127C21.0592 43.0762 21.1516 42.8362 21.3353 42.703C22.1119 42.1384 23.8211 40.7834 24.9601 38.1846C25.9731 35.878 25.972 33.6926 25.8851 32.5015H21.64C20.738 32.5015 20 31.6956 20 30.7116V21.7894C20 20.8053 20.738 20 21.64 20H29.8174C30.7193 20 31.4579 20.8053 31.4579 21.7894V34.2801Z" fill="white"/>
</svg>
