<svg width="22" height="22" viewBox="0 0 22 22" fill="none" xmlns="http://www.w3.org/2000/svg">
<mask id="mask0_2250_75" style="mask-type:alpha" maskUnits="userSpaceOnUse" x="0" y="0" width="22" height="22">
<rect width="22" height="22" fill="#D9D9D9"/>
</mask>
<g mask="url(#mask0_2250_75)">
<path d="M15.3084 14.2083L18.7917 11.2292L21.5417 11.4583L17.5084 14.9646L18.7 20.1667L16.3625 18.7458L15.3084 14.2083ZM13.1542 7.51667L12.1917 5.27083L13.2459 2.75L15.3542 7.72292L13.1542 7.51667ZM6.73754 16.3396L9.62504 14.5979L12.5125 16.3625L11.7563 13.0625L14.3 10.8625L10.9542 10.5646L9.62504 7.44792L8.29587 10.5417L4.95004 10.8396L7.49379 13.0625L6.73754 16.3396ZM3.96462 20.1667L5.45421 13.7271L0.458374 9.39583L7.05837 8.82292L9.62504 2.75L12.1917 8.82292L18.7917 9.39583L13.7959 13.7271L15.2855 20.1667L9.62504 16.7521L3.96462 20.1667Z" fill="#C11A00"/>
</g>
</svg>
