<svg width="47" height="32" viewBox="0 0 47 32" fill="none" xmlns="http://www.w3.org/2000/svg">
<rect width="46.6667" height="32" rx="6" fill="white"/>
<path fill-rule="evenodd" clip-rule="evenodd" d="M14.167 21.6777H11.3399L9.21994 13.5898C9.11932 13.2178 8.90567 12.8889 8.59139 12.7339C7.80708 12.3443 6.94283 12.0343 6 11.8779V11.5665H10.5542C11.1828 11.5665 11.6542 12.0343 11.7328 12.5775L12.8327 18.4115L15.6584 11.5665H18.407L14.167 21.6777ZM19.9783 21.6777H17.3084L19.5069 11.5665H22.1769L19.9783 21.6777ZM25.6312 14.3676C25.7097 13.823 26.1811 13.5117 26.7311 13.5117C27.5954 13.4335 28.5368 13.5898 29.3225 13.978L29.7939 11.8011C29.0082 11.4897 28.144 11.3333 27.3597 11.3333C24.7683 11.3333 22.8826 12.7339 22.8826 14.6776C22.8826 16.1564 24.2183 16.9328 25.1611 17.4006C26.1811 17.8669 26.574 18.1783 26.4954 18.6447C26.4954 19.3443 25.7097 19.6557 24.9254 19.6557C23.9826 19.6557 23.0398 19.4225 22.1769 19.0329L21.7055 21.2113C22.6483 21.5995 23.6683 21.7558 24.6111 21.7558C27.5168 21.8327 29.3225 20.4335 29.3225 18.3333C29.3225 15.6886 25.6312 15.5336 25.6312 14.3676V14.3676ZM38.6667 21.6777L36.5467 11.5665H34.2696C33.7982 11.5665 33.3268 11.8779 33.1696 12.3443L29.2439 21.6777H31.9925L32.5411 20.2003H35.9182L36.2324 21.6777H38.6667ZM34.6624 14.2894L35.4467 18.1002H33.2482L34.6624 14.2894Z" fill="#172B85"/>
</svg>
